<svg xmlns="http://www.w3.org/2000/svg" width="102.828" height="102.828" viewBox="0 0 102.828 102.828">
  <g id="グループ_245" data-name="グループ 245" opacity="0.8">
    <g id="グループ_398" data-name="グループ 398">
      <g id="グループ_397" data-name="グループ 397">
        <g id="パス_3049" data-name="パス 3049" fill="#fff" opacity="0.8">
          <path d="M 51.41414260864258 101.3282852172852 C 44.67511367797852 101.3282852172852 38.13846969604492 100.0087738037109 31.98577117919922 97.40640258789062 C 26.04220008850098 94.89248657226562 20.70402908325195 91.29328918457031 16.11951446533203 86.70877075195312 C 11.53499984741211 82.12425994873047 7.935799598693848 76.78608703613281 5.42188549041748 70.84251403808594 C 2.819514036178589 64.68981170654297 1.499999761581421 58.15317153930664 1.499999761581421 51.41414260864258 C 1.499999761581421 44.67511367797852 2.819514036178589 38.13846969604492 5.42188549041748 31.98577117919922 C 7.935799598693848 26.04220008850098 11.53499984741211 20.70402908325195 16.11951446533203 16.11951446533203 C 20.70402908325195 11.53499984741211 26.04220008850098 7.935799598693848 31.98577117919922 5.42188549041748 C 38.13846969604492 2.819514036178589 44.67511367797852 1.499999761581421 51.41414260864258 1.499999761581421 C 58.15317153930664 1.499999761581421 64.68981170654297 2.819514036178589 70.84251403808594 5.42188549041748 C 76.78608703613281 7.935799598693848 82.12425994873047 11.53499984741211 86.70877075195312 16.11951446533203 C 91.29328918457031 20.70402908325195 94.89248657226562 26.04220008850098 97.40640258789062 31.98577117919922 C 100.0087738037109 38.13846969604492 101.3282852172852 44.67511367797852 101.3282852172852 51.41414260864258 C 101.3282852172852 58.15317153930664 100.0087738037109 64.68981170654297 97.40640258789062 70.84251403808594 C 94.89248657226562 76.78608703613281 91.29328918457031 82.12425994873047 86.70877075195312 86.70877075195312 C 82.12425994873047 91.29328918457031 76.78608703613281 94.89248657226562 70.84251403808594 97.40640258789062 C 64.68981170654297 100.0087738037109 58.15317153930664 101.3282852172852 51.41414260864258 101.3282852172852 Z" stroke="none"/>
          <path d="M 51.41414260864258 3.000007629394531 C 44.87695693969727 3.000007629394531 38.53689575195312 4.279647827148438 32.57009887695312 6.803390502929688 C 26.80532836914062 9.241683959960938 21.62741851806641 12.73294067382812 17.18017578125 17.18017578125 C 12.73294067382812 21.62741851806641 9.241683959960938 26.80532836914062 6.803390502929688 32.57009887695312 C 4.279647827148438 38.53689575195312 3.000007629394531 44.87695693969727 3.000007629394531 51.41414260864258 C 3.000007629394531 57.95132827758789 4.279647827148438 64.29138946533203 6.803390502929688 70.25819396972656 C 9.241683959960938 76.02295684814453 12.73294067382812 81.20086669921875 17.18017578125 85.64810943603516 C 21.62741851806641 90.09534454345703 26.80532836914062 93.58660125732422 32.57009887695312 96.02489471435547 C 38.53689575195312 98.54863739013672 44.87695693969727 99.82827758789062 51.41414260864258 99.82827758789062 C 57.95132827758789 99.82827758789062 64.29138946533203 98.54863739013672 70.25819396972656 96.02489471435547 C 76.02295684814453 93.58660125732422 81.20086669921875 90.09534454345703 85.64810943603516 85.64810943603516 C 90.09534454345703 81.20086669921875 93.58660125732422 76.02295684814453 96.02489471435547 70.25819396972656 C 98.54863739013672 64.29138946533203 99.82827758789062 57.95132827758789 99.82827758789062 51.41414260864258 C 99.82827758789062 44.87695693969727 98.54863739013672 38.53689575195312 96.02489471435547 32.57009887695312 C 93.58660125732422 26.80532836914062 90.09534454345703 21.62741851806641 85.64810943603516 17.18017578125 C 81.20086669921875 12.73294067382812 76.02295684814453 9.241683959960938 70.25819396972656 6.803390502929688 C 64.29138946533203 4.279647827148438 57.95132827758789 3.000007629394531 51.41414260864258 3.000007629394531 M 51.41414260864258 7.62939453125e-06 C 79.80938720703125 7.62939453125e-06 102.8282775878906 23.01889801025391 102.8282775878906 51.41414260864258 C 102.8282775878906 79.80938720703125 79.80938720703125 102.8282775878906 51.41414260864258 102.8282775878906 C 23.01889801025391 102.8282775878906 7.62939453125e-06 79.80938720703125 7.62939453125e-06 51.41414260864258 C 7.62939453125e-06 23.01889801025391 23.01889801025391 7.62939453125e-06 51.41414260864258 7.62939453125e-06 Z" stroke="none" fill="#fff"/>
        </g>
        <path id="パス_3048" data-name="パス 3048" d="M566.908,438.422l-31.5-18.188V456.61Z" transform="translate(-495.163 -387.008)" fill="#000096"/>
      </g>
    </g>
  </g>
</svg>
